<svg width="47" height="47" viewBox="0 0 47 47" fill="none" xmlns="http://www.w3.org/2000/svg">
<path fill-rule="evenodd" clip-rule="evenodd" d="M40.7111 32.897L40.7104 14.1069L24.4224 4.70221L24.4231 23.4998L8.1394 32.9003L24.4282 42.3038L40.7012 32.9094L40.7111 32.9151V32.9037L40.7169 32.9003L40.7111 32.897Z" fill="#64C557"/>
<path d="M8.14437 14.1065L24.4324 4.70182L24.4317 23.51L8.14367 32.9148L8.14437 14.1065Z" fill="#118AB2"/>
<path d="M24.4342 4.6839L40.723 14.0874L35.2934 17.2219L19.0046 7.8184L24.4342 4.6839Z" fill="#00F8B7"/>
<path d="M35.2813 17.2162L35.2816 23.4856L18.9935 14.0809L18.9933 7.81149L35.2813 17.2162Z" fill="#09BD8E"/>
<path d="M18.9823 14.0904L35.2711 23.4939L29.8415 26.6284L13.5527 17.2249L18.9823 14.0904Z" fill="#FFE3A3"/>
<path d="M29.9061 26.6609L29.9063 32.9303L13.6183 23.5255L13.6181 17.2561L29.9061 26.6609Z" fill="#FFBB1D"/>
<path d="M13.569 23.4963L29.8577 32.8998L24.4282 36.0343L8.1394 26.6308L13.569 23.4963Z" fill="#FF965E"/>
<path d="M24.4161 36.0287L24.4163 42.2981L8.1283 32.8933L8.12806 26.6239L24.4161 36.0287Z" fill="#D94C00"/>
<path d="M35.2882 17.2181L40.7175 14.0831L40.7168 32.8914L35.2875 36.0263L35.2882 17.2181Z" fill="#06D6A0"/>
<path d="M29.8476 26.6246L35.2769 23.4897L35.2764 36.0285L29.8471 39.1634L29.8476 26.6246Z" fill="#FFD166"/>
<path d="M24.4067 36.0306L29.836 32.8957L29.8358 39.1651L24.4064 42.3L24.4067 36.0306Z" fill="#F3722C"/>
</svg>
